<svg width="52" height="56" viewBox="0 0 52 56" fill="none" xmlns="http://www.w3.org/2000/svg">
<path d="M11.035 45.2958V37.3166C11.638 37.5721 12.2581 37.8072 12.8918 38.0321C13.8969 38.3796 14.9871 38.3796 15.9922 38.0321C20.871 36.3354 24.8095 33.6575 27.5078 29.8996C30.2164 26.1416 31.477 21.5695 31.477 16.4317V7.74725L31.4157 7.13399L31.385 6.97045C31.1765 5.88114 30.5959 4.89814 29.7426 4.18964C28.8893 3.48114 27.8163 3.09118 26.7072 3.08647C26.605 3.08647 26.5028 3.08647 26.4006 3.07966C27.3211 2.0516 28.532 1.32725 29.8732 1.00246C31.2144 0.67767 32.6226 0.767744 33.9115 1.26077C35.2003 1.75379 36.3091 2.62652 37.0912 3.76348C37.8732 4.90045 38.2916 6.24806 38.291 7.62801L38.2876 7.8188H48.512C49.4156 7.8188 50.2822 8.17775 50.9211 8.81668C51.5601 9.45562 51.919 10.3222 51.919 11.2258L51.9156 21.256H48.512C46.7929 21.2555 45.1371 21.9047 43.8766 23.0736C42.6161 24.2425 41.844 25.8447 41.715 27.559L41.698 28.07C41.6975 29.7891 42.3467 31.4449 43.5156 32.7054C44.6845 33.9659 46.2867 34.738 48.001 34.867L48.512 34.884L51.9156 34.8806L51.919 45.2958C51.919 46.1994 51.5601 47.066 50.9211 47.7049C50.2822 48.3438 49.4156 48.7028 48.512 48.7028H38.2808L38.274 49.0196C38.1557 50.7705 37.3666 52.4082 36.0709 53.5917C34.7753 54.7752 33.0729 55.4132 31.3186 55.3728C29.5642 55.3324 27.8931 54.6167 26.6532 53.3748C25.4134 52.133 24.7005 50.4606 24.663 48.7062H14.442C13.5384 48.7062 12.6718 48.3473 12.0329 47.7083C11.394 47.0694 11.035 46.2028 11.035 45.2992V45.2958ZM21.256 5.40664C22.9805 6.13557 24.835 6.50649 26.7072 6.49688C27.3648 6.49688 27.9167 6.98068 28.0427 7.62801L28.07 7.91419V16.4351C28.07 25.5727 23.5966 31.787 14.8713 34.8159C14.5932 34.9122 14.2908 34.9122 14.0127 34.8159C11.7198 34.0502 9.5634 32.9243 7.62459 31.4804C6.34535 30.5105 5.21078 29.3633 4.25507 28.0734C2.12229 25.1775 0.970721 21.5899 0.827627 17.3414L0.814 16.4317V7.91419C0.814 7.13058 1.42726 6.49347 2.1768 6.49347C6.34356 6.49347 10.0913 4.7559 13.4812 1.22966C13.6051 1.09829 13.7546 0.993621 13.9204 0.922082C14.0862 0.850543 14.2648 0.813641 14.4454 0.813641C14.626 0.813641 14.8047 0.850543 14.9705 0.922082C15.1363 0.993621 15.2857 1.09829 15.4096 1.22966C17.2494 3.1478 19.1914 4.53445 21.256 5.40323V5.40664Z" fill="#FF9000"/>
</svg>
