<svg width="62" height="52" viewBox="0 0 62 52" fill="none" xmlns="http://www.w3.org/2000/svg">
<path d="M11.2432 33.5938C11.2432 33.5938 4.49257 28.0839 3.16384 25.7776C-0.992702 18.5898 4.06196 7.04855 13.0441 5.12738M33.6347 32.6853L45.8337 39.3299M29.0542 37.2279L41.3573 43.3776M52.0609 35.2689L47.2343 31.1446L39.3992 27.042M25.1759 10.6003L38.0846 16.4717L50.1227 23.2517C52.5019 24.8586 54.866 28.7824 56.2837 30.1802" stroke="#BDAD00" stroke-width="1.89278" stroke-linecap="round" stroke-linejoin="round"/>
<path d="M32.4801 45.2722C40.5945 50.4452 42.6917 44.993 41.3639 43.3851C43.9513 44.923 47.24 42.8958 45.8413 39.3317C49.4792 41.0797 52.4868 38.3532 52.0675 35.2784C55.2152 35.8377 57.1733 33.2512 56.2648 30.1754C62.6255 25.8362 61.0355 12.1656 56.1711 6.175C47.382 4.79422 45.7608 3.93963 36.3158 2.44339L23.5112 1.85758C22.5941 1.61685 21.6199 1.72972 20.7821 2.17378C19.9443 2.61784 19.3041 3.36064 18.9884 4.25478C18.2271 7.04319 17.0807 9.71183 15.5824 12.1836C15.2505 12.9952 15.2502 13.9046 15.5815 14.7164C15.9127 15.5283 16.5491 16.1779 17.354 16.5257C19.1597 16.9771 19.985 16.1604 21.5749 14.93C22.9373 13.6296 24.1455 12.1768 25.1759 10.6003" stroke="#BDAD00" stroke-width="1.89278" stroke-linecap="round" stroke-linejoin="round"/>
<path d="M26.8207 43.247C27.2318 42.6186 27.8734 42.1771 28.6072 42.0177C29.3409 41.8583 30.1079 41.9939 30.7426 42.3952C32.0722 43.1646 33.0508 44.6306 32.1413 46.2404L30.4624 49.1751C30.0138 49.779 29.3605 50.1988 28.6247 50.356C27.889 50.5131 27.1212 50.3969 26.4649 50.029C25.8087 49.6611 25.3089 49.0667 25.0591 48.357C24.8094 47.6474 24.8266 46.871 25.1078 46.1732L26.8207 43.2451V43.247ZM21.4547 40.2469C21.8657 39.6185 22.5074 39.177 23.2411 39.0176C23.9749 38.8583 24.7419 38.9939 25.3765 39.3952C26.7062 40.1646 27.6848 41.6305 26.7753 43.2403L25.0964 46.1751C24.6476 46.7785 23.9945 47.1979 23.259 47.3549C22.5236 47.5119 21.7561 47.3957 21.1001 47.028C20.4441 46.6603 19.9444 46.0664 19.6944 45.3571C19.4444 44.6479 19.4612 43.8718 19.7417 43.1741L21.4547 40.2469Z" stroke="#BDAD00" stroke-width="1.89278" stroke-linecap="round" stroke-linejoin="round"/>
<path d="M16.0981 37.2563C16.5092 36.6279 17.1508 36.1864 17.8846 36.027C18.6183 35.8677 19.3853 36.0033 20.02 36.4045C21.3496 37.174 22.3282 38.6399 21.4187 40.2497L19.7398 43.1845C19.2911 43.7879 18.6379 44.2073 17.9025 44.3643C17.167 44.5213 16.3996 44.4051 15.7435 44.0374C15.0875 43.6697 14.5878 43.0758 14.3378 42.3665C14.0878 41.6573 14.1047 40.8812 14.3852 40.1835L16.0981 37.2554V37.2563Z" stroke="#BDAD00" stroke-width="1.89278" stroke-linecap="round" stroke-linejoin="round"/>
<path d="M10.751 34.2563C11.1621 33.6279 11.8037 33.1864 12.5375 33.027C13.2712 32.8677 14.0382 33.0033 14.6729 33.4045C16.0025 34.1739 16.9811 35.6399 16.0716 37.2497L14.3927 40.1845C13.944 40.7879 13.2908 41.2073 12.5554 41.3643C11.8199 41.5212 11.0525 41.405 10.3964 41.0374C9.7404 40.6697 9.24071 40.0757 8.99072 39.3665C8.74073 38.6572 8.75756 37.8812 9.03806 37.1834L10.751 34.2553V34.2563Z" stroke="#BDAD00" stroke-width="1.89278" stroke-linecap="round" stroke-linejoin="round"/>
</svg>
