<svg width="90" height="72" viewBox="0 0 90 72" fill="none" xmlns="http://www.w3.org/2000/svg">
<path d="M72 29.16V9C72 4.05 67.95 0 63 0H9C4.05 0 0 4.05 0 9V63C0 67.95 4.05 72 9 72H63C67.95 72 72 67.95 72 63V42.84L90 60.75V11.25L72 29.16ZM36 18C40.95 18 45 22.05 45 27C45 31.95 40.95 36 36 36C31.05 36 27 31.95 27 27C27 22.05 31.05 18 36 18ZM54 54H18V51.435C18 47.79 20.16 44.55 23.49 43.11C27.4358 41.3879 31.6947 40.499 36 40.499C40.3053 40.499 44.5642 41.3879 48.51 43.11C50.1403 43.8068 51.5299 44.9675 52.5059 46.4476C53.482 47.9277 54.0016 49.662 54 51.435V54Z" fill="#F48C06"/>
</svg>
