<svg width="13" height="12" viewBox="0 0 13 12" fill="none" xmlns="http://www.w3.org/2000/svg">
<path d="M0.586914 1.61327C0.586914 1.22846 0.722053 0.910998 0.992319 0.660886C1.26259 0.410762 1.61394 0.285706 2.04637 0.285706C2.47109 0.285706 2.81471 0.408834 3.07726 0.655114C3.34753 0.909082 3.48267 1.24 3.48267 1.6479C3.48267 2.01731 3.3514 2.32514 3.08884 2.57142C2.81858 2.82539 2.46336 2.95237 2.02321 2.95237H2.01162C1.58691 2.95237 1.24329 2.82539 0.980736 2.57142C0.718184 2.31745 0.586914 1.99806 0.586914 1.61327ZM0.737493 11.7143V4.00288H3.30892V11.7143H0.737493ZM4.73363 11.7143H7.30506V7.40836C7.30506 7.13899 7.33595 6.9312 7.39772 6.78498C7.50583 6.52331 7.66993 6.30205 7.89 6.1212C8.11008 5.94034 8.38614 5.84992 8.71819 5.84992C9.58306 5.84992 10.0155 6.43096 10.0155 7.59306V11.7143H12.5869V7.29292C12.5869 6.1539 12.3166 5.29003 11.7761 4.70129C11.2356 4.11254 10.5213 3.81817 9.63325 3.81817C8.63711 3.81817 7.86105 4.2453 7.30506 5.09956V5.12264H7.29348L7.30506 5.09956V4.00288H4.73363C4.74907 4.24914 4.7568 5.01489 4.7568 6.30013C4.7568 7.58536 4.74907 9.39007 4.73363 11.7143Z" fill="#8D8BA7"/>
</svg>
