<svg width="65" height="48" viewBox="0 0 65 48" fill="none" xmlns="http://www.w3.org/2000/svg">
<path d="M42.7169 24.07C39.9806 24.07 37.3349 22.8483 35.2641 20.6311C33.2505 18.4684 32.0207 15.5844 31.8038 12.5128C31.5722 9.23625 32.5717 6.22318 34.6173 4.02726C36.6628 1.83135 39.5228 0.646881 42.7169 0.646881C45.8883 0.646881 48.7563 1.85264 50.7952 4.04323C52.854 6.25512 53.8562 9.26286 53.6246 12.5115C53.4023 15.5871 52.174 18.4697 50.1644 20.6297C48.0989 22.8483 45.4544 24.07 42.7169 24.07ZM60.2616 47.4931H25.1735C24.6093 47.4962 24.052 47.3697 23.5444 47.1235C23.0368 46.8773 22.5925 46.518 22.2456 46.0731C21.8776 45.5908 21.6235 45.0316 21.5023 44.4372C21.381 43.8428 21.3958 43.2287 21.5456 42.6408C22.6661 38.1412 25.4423 34.4095 29.5733 31.8502C33.2398 29.5798 37.9071 28.3288 42.7169 28.3288C47.6211 28.3288 52.166 29.5265 55.8538 31.7956C59.9941 34.3416 62.7742 38.0946 63.8895 42.6488C64.0374 43.2371 64.0506 43.8512 63.928 44.4453C63.8054 45.0394 63.5502 45.5981 63.1815 46.0798C62.8349 46.5226 62.3916 46.8802 61.8855 47.1252C61.3794 47.3701 60.8239 47.496 60.2616 47.4931ZM17.5636 24.6024C12.8803 24.6024 8.76265 20.2478 8.38069 14.8964C8.19171 12.1548 9.04612 9.61953 10.7762 7.76032C12.4877 5.91975 14.9019 4.90563 17.5636 4.90563C20.2253 4.90563 22.6209 5.92507 24.3417 7.7763C26.0851 9.65015 26.9369 12.1801 26.7372 14.8991C26.3553 20.2491 22.2389 24.6024 17.5636 24.6024ZM26.302 28.7879C23.9611 27.6434 20.9227 27.0711 17.565 27.0711C13.6442 27.0711 9.83665 28.0932 6.84222 29.9484C3.4472 32.0552 1.16344 35.1228 0.241157 38.8266C0.106188 39.3593 0.0934228 39.9157 0.203815 40.454C0.314208 40.9924 0.544901 41.4988 0.878639 41.9355C1.19531 42.342 1.60101 42.6705 2.06452 42.8957C2.52804 43.1208 3.03702 43.2367 3.55234 43.2344H18.3249C18.5742 43.2343 18.8156 43.1468 19.007 42.987C19.1984 42.8272 19.3277 42.6053 19.3723 42.36C19.3869 42.2762 19.4055 42.1923 19.4268 42.1098C20.5554 37.5769 23.1998 33.7467 27.1072 30.9545C27.2509 30.8509 27.3665 30.7131 27.4435 30.5536C27.5205 30.394 27.5565 30.2178 27.5482 30.0408C27.5398 29.8638 27.4875 29.6918 27.3958 29.5401C27.3042 29.3885 27.1762 29.2622 27.0234 29.1725C26.8144 29.0501 26.5749 28.921 26.302 28.7879Z" fill="#118DFF"/>
</svg>
