<svg width="13" height="10" viewBox="0 0 13 10" fill="none" xmlns="http://www.w3.org/2000/svg">
<path d="M8.60495 0.134241V0.13208H9.16762L9.37321 0.173141C9.51027 0.199799 9.63471 0.234733 9.74652 0.277956C9.85834 0.321178 9.96654 0.371608 10.0711 0.429234C10.1757 0.48686 10.2706 0.545578 10.3557 0.605366C10.4401 0.66444 10.5159 0.727112 10.583 0.793383C10.6493 0.860378 10.7528 0.877667 10.8935 0.84525C11.0342 0.812833 11.1857 0.767806 11.348 0.71018C11.5103 0.652554 11.6708 0.58772 11.8295 0.515679C11.9882 0.443638 12.0849 0.397898 12.1195 0.378448C12.1534 0.358285 12.1714 0.347479 12.1736 0.346031L12.1757 0.342789L12.1866 0.337387L12.1974 0.331984L12.2082 0.326581L12.219 0.321178L12.2212 0.317936L12.2244 0.315775L12.2277 0.313614L12.2298 0.310373L12.2407 0.307131L12.2515 0.30497L12.2493 0.321178L12.2461 0.337387L12.2407 0.353595L12.2352 0.369803L12.2298 0.380609L12.2244 0.391415L12.219 0.407623C12.2154 0.418429 12.2118 0.432832 12.2082 0.450845C12.2046 0.468858 12.1703 0.540888 12.1054 0.666957C12.0405 0.793026 11.9593 0.920889 11.8619 1.05056C11.7646 1.18022 11.6773 1.27819 11.6001 1.34447C11.5222 1.41146 11.4706 1.45828 11.4453 1.48494C11.4201 1.51231 11.3894 1.53752 11.3534 1.56058L11.2993 1.59624L11.2884 1.60164L11.2776 1.60705L11.2755 1.61029L11.2722 1.61245L11.269 1.61461L11.2668 1.61785L11.256 1.62325L11.2452 1.62866L11.243 1.6319L11.2398 1.63406L11.2365 1.63622L11.2343 1.63946L11.2322 1.6427L11.2289 1.64486L11.2257 1.64703L11.2235 1.65027H11.2776L11.5806 1.58543C11.7826 1.54221 11.9756 1.48999 12.1595 1.42875L12.4517 1.3315L12.4841 1.3207L12.5003 1.31529L12.5112 1.30989L12.522 1.30449L12.5328 1.29909L12.5436 1.29368L12.5653 1.29044L12.5869 1.28828V1.30989L12.5815 1.31205L12.5761 1.31529L12.5739 1.31854L12.5707 1.3207L12.5674 1.32286L12.5653 1.3261L12.5631 1.32934L12.5599 1.3315L12.5566 1.33366L12.5545 1.3369L12.5523 1.34015L12.549 1.34231L12.5436 1.35311L12.5382 1.36392L12.535 1.36608C12.5335 1.36824 12.4877 1.42947 12.3976 1.54978C12.3074 1.6708 12.2587 1.73202 12.2515 1.73347C12.2443 1.73563 12.2342 1.74644 12.2212 1.76589C12.2089 1.78605 12.1325 1.86638 11.9918 2.00685C11.8511 2.14733 11.7133 2.2723 11.5784 2.38181C11.4428 2.49202 11.3743 2.62745 11.3729 2.7881C11.3707 2.94802 11.3624 3.12884 11.348 3.33054C11.3335 3.53225 11.3065 3.75015 11.2668 3.98428C11.2271 4.2184 11.1658 4.48314 11.0829 4.77849C10.9999 5.07384 10.8989 5.36199 10.7799 5.64294C10.6609 5.92388 10.5364 6.17601 10.4066 6.39933C10.2767 6.62265 10.1577 6.81175 10.0495 6.96662C9.94129 7.1215 9.83129 7.26738 9.71947 7.40425C9.60766 7.54113 9.46628 7.69529 9.29531 7.86673C9.12362 8.03746 9.02985 8.13111 9.01398 8.14768C8.99739 8.16353 8.9267 8.2226 8.80188 8.32489C8.67781 8.4279 8.54435 8.53091 8.40152 8.63393C8.25942 8.73623 8.12884 8.82159 8.00982 8.89002C7.89079 8.95845 7.74725 9.03661 7.57916 9.1245C7.41181 9.21311 7.23074 9.29523 7.03597 9.37087C6.8412 9.44651 6.63561 9.51675 6.4192 9.58158C6.20278 9.64641 5.99359 9.69684 5.7916 9.73286C5.58963 9.76887 5.36059 9.7995 5.1045 9.82471L4.72037 9.86253V9.86793H4.01703V9.86253L3.92506 9.85712C3.86375 9.85353 3.81325 9.84992 3.77357 9.84632C3.7339 9.84272 3.58421 9.8229 3.32452 9.78689C3.06482 9.75087 2.86104 9.71485 2.71315 9.67883C2.56528 9.64282 2.34525 9.57437 2.0531 9.47353C1.76094 9.37268 1.51099 9.27074 1.30324 9.16773C1.09621 9.06543 0.966359 9.0006 0.913695 8.97323C0.861756 8.94657 0.803325 8.91344 0.738402 8.87381L0.641017 8.81438L0.638864 8.81114L0.635607 8.80898L0.63236 8.80682L0.630196 8.80358L0.619376 8.79817L0.608555 8.79277L0.606402 8.78953L0.603145 8.78737L0.599899 8.78521L0.597735 8.78197L0.595581 8.77872L0.592324 8.77656H0.586914V8.75495L0.597735 8.75711L0.608555 8.76035L0.657248 8.76576C0.689709 8.76936 0.778081 8.77476 0.922351 8.78197C1.06663 8.78917 1.21992 8.78917 1.38223 8.78197C1.54453 8.77476 1.71046 8.75855 1.87997 8.73334C2.0495 8.70813 2.24968 8.66491 2.48051 8.60367C2.71136 8.54244 2.92344 8.46968 3.11677 8.3854C3.30938 8.3004 3.44643 8.23701 3.52795 8.19522C3.60874 8.15416 3.73209 8.0778 3.89801 7.96614L4.14688 7.79866L4.14904 7.79541L4.15229 7.79325L4.15555 7.79109L4.1577 7.78785L4.15986 7.78461L4.16311 7.78245L4.16637 7.78029L4.16852 7.77704L4.17934 7.7738L4.19016 7.77164L4.19232 7.76084L4.19557 7.75003L4.19883 7.74787L4.20098 7.74463L4.11442 7.73923C4.05671 7.73563 4.0008 7.73202 3.9467 7.72842C3.89259 7.72482 3.80784 7.70861 3.69241 7.67979C3.577 7.65098 3.45257 7.60775 3.31911 7.55013C3.18566 7.4925 3.05581 7.42406 2.92957 7.34482C2.80333 7.26558 2.71207 7.19966 2.6558 7.14708C2.60026 7.0952 2.52812 7.02173 2.43939 6.92664C2.35139 6.83084 2.27492 6.7325 2.21 6.63165C2.14507 6.5308 2.08304 6.41445 2.0239 6.28263L1.93407 6.08597L1.92866 6.06976L1.92325 6.05355L1.92001 6.04275L1.91784 6.03194L1.93407 6.0341L1.9503 6.03734L2.06933 6.05355C2.14869 6.06436 2.27313 6.06796 2.44264 6.06436C2.61217 6.06076 2.72938 6.05355 2.79431 6.04275C2.85923 6.03194 2.89891 6.02473 2.91333 6.02113L2.93498 6.01573L2.96203 6.01033L2.98908 6.00493L2.99124 6.00168L2.99449 5.99952L2.99775 5.99736L2.9999 5.99412L2.97826 5.98872L2.95662 5.98331L2.93498 5.97791L2.91333 5.97251L2.89169 5.96711C2.87727 5.96351 2.85203 5.9563 2.81595 5.9455C2.77988 5.93469 2.6825 5.89507 2.52379 5.82663C2.3651 5.7582 2.23886 5.69156 2.14507 5.62673C2.05106 5.56171 1.96142 5.4906 1.87672 5.41386C1.79232 5.33606 1.69964 5.23592 1.59864 5.11346C1.49765 4.991 1.40748 4.84873 1.32812 4.68664C1.24878 4.52456 1.18926 4.36968 1.14958 4.222C1.11006 4.07519 1.08399 3.92509 1.07169 3.77357L1.0522 3.54665L1.06302 3.54881L1.07384 3.55205L1.08466 3.55746L1.09548 3.56286L1.1063 3.56826L1.11712 3.57366L1.28484 3.6493C1.39666 3.69973 1.53552 3.74296 1.70143 3.77897C1.86735 3.81499 1.96654 3.8348 1.999 3.8384L2.04769 3.84381H2.14507L2.14292 3.84056L2.13966 3.8384L2.13642 3.83624L2.13425 3.833L2.1321 3.82976L2.12884 3.8276L2.1256 3.82544L2.12343 3.82219L2.11261 3.81679L2.10179 3.81139L2.09964 3.80815L2.09638 3.80599L2.09314 3.80382L2.09097 3.80058L2.08015 3.79518L2.06933 3.78978L2.06718 3.78654C2.06501 3.78509 2.03399 3.76204 1.97411 3.71738C1.91495 3.672 1.85292 3.61329 1.788 3.54125C1.72307 3.46921 1.65815 3.39357 1.59323 3.31433C1.52818 3.23491 1.47025 3.14994 1.4201 3.0604C1.36961 2.97036 1.31622 2.85581 1.25995 2.71678C1.20441 2.57847 1.16221 2.43908 1.13335 2.2986C1.1045 2.15813 1.08827 2.01946 1.08466 1.88259C1.08106 1.74571 1.08466 1.62866 1.09548 1.53141C1.1063 1.43416 1.12794 1.32429 1.1604 1.20183C1.19287 1.07937 1.23976 0.949708 1.30107 0.812833L1.39305 0.607527L1.39846 0.591318L1.40387 0.57511L1.40712 0.572949L1.40928 0.569707L1.41144 0.566465L1.41469 0.564304L1.41794 0.566465L1.4201 0.569707L1.42226 0.572949L1.42551 0.57511L1.42876 0.577271L1.43092 0.580513L1.43308 0.583754L1.43633 0.585915L1.44174 0.596721L1.44715 0.607527L1.45041 0.609688L1.45256 0.612929L1.59864 0.775014C1.69602 0.88307 1.81144 1.00374 1.94489 1.137C2.07836 1.27027 2.15229 1.33942 2.16672 1.34447C2.18115 1.35023 2.19918 1.36679 2.22082 1.39417C2.24246 1.42083 2.3146 1.48459 2.43723 1.58543C2.55987 1.68628 2.72037 1.80335 2.91874 1.93662C3.11713 2.06988 3.33714 2.20135 3.5788 2.33102C3.82047 2.46069 4.08016 2.57774 4.35788 2.6822C4.63561 2.78666 4.83038 2.85509 4.94219 2.88751C5.05401 2.91993 5.24516 2.96134 5.51568 3.01177C5.78619 3.0622 5.98999 3.09462 6.12704 3.10902C6.2641 3.12343 6.35789 3.13172 6.40837 3.13388L6.48412 3.13604L6.48197 3.11983L6.47871 3.10362L6.45707 2.96855C6.44264 2.87851 6.43543 2.75244 6.43543 2.59035C6.43543 2.42827 6.44805 2.2788 6.4733 2.14192C6.49855 2.00505 6.53643 1.86638 6.58691 1.72591C6.63741 1.58543 6.68683 1.47269 6.73516 1.38769C6.78422 1.30341 6.84841 1.20724 6.92776 1.09918C7.00712 0.991126 7.10992 0.879471 7.23615 0.764208C7.36239 0.648945 7.50666 0.546291 7.66897 0.456248C7.83128 0.366205 7.98097 0.297762 8.11802 0.250942C8.25509 0.204121 8.37051 0.173498 8.46428 0.159094C8.55806 0.14469 8.60495 0.136402 8.60495 0.134241Z" fill="#8D8BA7"/>
</svg>
