<svg width="15" height="10" viewBox="0 0 15 10" fill="none" xmlns="http://www.w3.org/2000/svg">
<path d="M7.87935 9.65328L5.17122 9.60267C4.29439 9.58503 3.41537 9.62024 2.55573 9.43752C1.24802 9.16451 1.15538 7.82591 1.05844 6.70308C0.924864 5.12452 0.976575 3.51731 1.22865 1.95192C1.37095 1.07358 1.93097 0.549465 2.79703 0.492432C5.72059 0.285448 8.6636 0.309978 11.5807 0.406543C11.8888 0.415396 12.199 0.46378 12.5028 0.518854C14.0023 0.787466 14.0389 2.3044 14.1361 3.58137C14.233 4.87152 14.1921 6.16829 14.0068 7.44965C13.8581 8.51058 13.5737 9.40028 12.3735 9.48617C10.8696 9.59848 9.40031 9.6889 7.89224 9.66011C7.89231 9.65328 7.88364 9.65328 7.87935 9.65328ZM6.28723 6.9673C7.4205 6.30236 8.53214 5.6485 9.65893 4.98802C8.52355 4.32308 7.41402 3.66922 6.28723 3.00873V6.9673Z" fill="#8D8BA7"/>
</svg>
